<?xml version="1.0" encoding="utf-8"?>
<!-- Generator: Adobe Illustrator 25.4.1, SVG Export Plug-In . SVG Version: 6.00 Build 0)  -->
<svg version="1.1" id="Layer_1" xmlns="http://www.w3.org/2000/svg" xmlns:xlink="http://www.w3.org/1999/xlink" x="0px" y="0px"
	 viewBox="0 0 640.99 639.82" style="enable-background:new 0 0 640.99 639.82;" xml:space="preserve">
<style type="text/css">
	.st0{fill:#1C2455;}
	.st1{fill:#225781;}
</style>
<path class="st0" d="M640.99,319.42c0.28,175.04-142.24,318.83-317.49,320.39C145.84,641.4,0.92,498.06,0,321.54
	C-0.9,146.57,141.87-0.34,321.51,0C494.26,0.32,641.32,140.25,640.99,319.42z M619.39,320.56c0.17-79.96-33.71-160.24-91.11-214.74
	c-61.75-58.64-135.6-87.23-220.55-83.73C152.4,28.49,22.11,153.04,22.3,319.64c0.2,170.37,134.99,300.49,300.21,299.49
	C489.41,618.11,618.95,483.76,619.39,320.56z"/>
<path class="st1" d="M324.13,606.66c-157.17,1.5-288.79-125.53-291.23-280.72C30.28,159.75,162.82,33.69,316.13,31.9
	c162.7-1.9,289.91,128.74,292.2,280.51C610.93,484.25,470.76,606.5,324.13,606.66z M321.16,50.66
	C170.62,49.63,50.58,172.96,51.34,320.26C52.09,466,170.2,588.33,319.27,588.94c152.34,0.62,271-125.47,270.61-269.9
	C589.49,173.17,467.65,48.9,321.16,50.66z"/>
<path class="st0" d="M541.91,245.97c0.39,36.96-6.25,72.76-18.23,107.73c-21.89,63.88-59.48,116.58-111.25,159.68
	c-25.92,21.58-54.82,38.13-84.76,53.11c-2.43,1.21-6.22,1.38-8.77,0.41c-52.14-19.74-94.36-53.28-130.74-94.78
	c-22.51-25.68-41.16-53.93-55.28-85.05c-11.75-25.89-19.53-52.98-24.92-80.9c-5.33-27.64-7.46-55.43-6.32-83.51
	c0.05-1.33,0.09-2.66,0.17-3.99c0.6-9.95,2.02-11.33,11.51-14.01c17.29-4.89,34.67-9.55,51.67-15.31
	c32.6-11.03,62.19-27.78,89.19-49.12c24.14-19.08,45.07-41.21,63.02-66.18c0.48-0.67,1.19-1.21,1.58-1.93
	c1.96-3.68,3.65-3.33,6.12-0.2c8.12,10.3,16.04,20.8,24.81,30.53c27.58,30.57,59.65,55.46,96.67,73.59
	c20.2,9.89,41.26,17.78,63,23.62c8.19,2.2,16.54,3.89,24.89,5.38c5.29,0.95,7.82,3.35,7.7,8.93
	C541.75,224.65,541.91,235.31,541.91,245.97z M354.51,401.83c-0.05-8.5,2.76-15.4,8.86-21.36c13.02-12.74,25.57-25.96,38.74-38.54
	c7.99-7.64,11.87-16.4,11.69-27.44c-0.26-16.66-0.04-33.33,0.1-49.99c0.06-6.69-1.99-12.43-6.72-17.15
	c-9.53-9.49-19.06-18.98-28.73-28.33c-1.28-1.24-3.34-1.68-5.04-2.49c-0.59,1.83-1.63,3.64-1.69,5.49
	c-0.39,11.99-1.21,24.01-0.59,35.96c0.4,7.65,2.3,15.43,4.82,22.7c3.27,9.44,0.03,17.68-9.45,20.57c-6.27,1.91-11.52-0.09-15.8-4.68
	c-4.16-4.47-4.65-9.05-1.79-14.99c2.5-5.2,3.88-11.42,4-17.22c0.76-35.65,0.76-71.31,1.56-106.96c0.33-14.43-7.76-23.06-18.3-30.49
	c-3.21-2.26-4.81-1.17-4.8,2.79c0.07,22.16-0.04,44.32,0.44,66.47c0.11,4.95,1.25,10.55,3.83,14.65c6.57,10.4,0.6,17.9-6.61,22.05
	c-5.37,3.1-10.55,2.21-15.35-1.52c-4.85-3.77-8.46-8.09-6.62-14.85c1.18-4.33,2.65-8.62,3.42-13.03
	c4.26-24.51,1.36-49.22,1.81-73.85c0.07-3.59-2.35-4.33-5.05-2.27c-3.29,2.52-6.32,5.39-9.43,8.14c-5.97,5.28-8.31,11.67-8.22,19.87
	c0.4,34.16,0.28,68.32,0.12,102.48c-0.04,8.34,1.32,16.1,5.23,23.57c3.58,6.84,2.06,13.46-3.28,17.53
	c-6.14,4.69-13.22,5.05-18.45,0.95c-5.04-3.95-6.03-10.72-3.27-18.24c1.82-4.96,3.98-10.15,4.16-15.29
	c0.48-13.81,0.08-27.65-0.26-41.48c-0.05-2.05-1.28-5.43-2.59-5.77c-1.9-0.49-4.91,0.64-6.51,2.1c-8,7.27-15.68,14.9-23.51,22.35
	c-6.48,6.17-9.94,13.63-9.96,22.63c-0.05,18.66-0.16,37.32-0.13,55.98c0.01,5.88,2.05,10.86,6.42,15.15
	c14.74,14.47,29.14,29.28,43.91,43.72c5.7,5.57,8.47,11.57,8.37,19.83c-0.44,36.99-0.34,73.98-0.34,110.98
	c0,17.44-1.48,12.6,12.58,20.7c8.97,5.16,10.2,4.26,10.29-6.18c0.47-53.65,0.81-107.3,1.49-160.95c0.14-10.86-1.62-21.13-5.39-31.23
	c-3.18-8.51-0.96-15.32,6.29-20.59c4.87-3.54,12.42-2.64,17.91,2.13c6.54,5.69,7.55,9.28,3.8,15.98
	c-3.69,6.59-5.13,13.51-5.09,21.03c0.15,28.49,0.06,56.99,0.06,85.48c0.07,0,0.13,0,0.2,0c0,30.33-0.02,60.66,0.02,90.98
	c0.01,6.27,1.35,7,7.23,4.64c10.66-4.27,16.97-11.35,15.94-23.55c-0.28-3.31-0.1-6.66-0.1-9.99 M274.07,455.04c0.03,0,0.06,0,0.09,0
	c0-16.33,0.1-32.67-0.09-49c-0.04-3.04-0.33-6.87-2.13-8.94c-4.42-5.09-9.66-9.51-14.85-13.86c-0.99-0.83-3.91-0.82-4.86,0.02
	c-5.84,5.2-11.5,10.68-13.85,18.49c-4,13.31-0.17,25.67,4.86,37.83c3.13,7.57,1.82,13.22-4.4,18.25
	c-4.45,3.59-13.65,3.29-19.32-0.64c-5.64-3.91-8.18-10.69-5.23-17.08c5.53-11.99,7.5-24.38,6.23-37.43
	c-0.58-5.95,1.51-11.19,5.31-15.68c3.42-4.05,7.02-7.95,10.64-11.82c5.28-5.65,5.45-7.61,0.03-13.37
	c-5.22-5.55-10.57-11.01-16.14-16.21c-5.72-5.33-9.42-11.13-7.24-19.38c0.31-1.19-0.66-2.72-1.04-4.09
	c-1.31,0.44-2.94,0.52-3.89,1.37c-5.94,5.3-11.88,10.62-17.52,16.23c-8,7.96-8.08,9.41-2.92,19.51c0.53,1.04,1.05,2.08,1.5,3.16
	c2.4,5.71-0.22,14.8-5.45,18.93c-3.99,3.15-10.3,2.76-15.83-0.99c-6.08-4.11-8.26-11.81-5.55-19.1c1.45-3.89,3.53-7.79,3.86-11.81
	c0.77-9.32,5.48-16.25,11.8-22.44c8.32-8.15,16.68-16.26,25.18-24.23c6.56-6.15,10.21-13.31,9.69-22.54
	c-0.35-6.31,0.43-12.7-0.14-18.99c-0.91-10.05,3.03-17.43,10.13-24.24c13.93-13.36,27.28-27.33,40.93-40.98
	c7.57-7.57,10.49-16.72,9.91-27.24c-0.34-6.19-2.95-7.96-8.3-4.87c-6.19,3.57-12.1,7.62-18.13,11.47
	c-27.31,17.42-55.71,32.6-86.75,42.4c-9.52,3-19,6.13-28.51,9.16c-5.09,1.62-6.97,5.05-6.46,10.3c1.98,20.38,3.77,40.78,5.78,61.16
	c0.47,4.73,2.97,5.83,6.73,2.62c6.69-5.71,13.08-11.79,19.35-17.96c6.17-6.08,7.44-13.7,5.13-21.74
	c-1.55-5.41-4.25-10.48-5.91-15.86c-0.78-2.53-1.39-6.05-0.25-8.09c7.02-12.56,15.93-16.4,27.75-6.39c4.88,4.13,5.74,7.97,2.9,13.77
	c-3.82,7.8-5.99,15.92-5.33,24.6c0.77,10.13-3.2,17.96-10.49,24.73c-9.25,8.58-18.15,17.54-27.17,26.36
	c-4.63,4.52-6.86,9.51-4.16,16.14c5.7,14.02,10.37,28.5,16.73,42.2c14.53,31.27,33.31,59.85,56.86,85.17
	c15.31,16.46,31.33,32.18,49.62,45.36c2.36,1.7,5.68,2.06,8.55,3.04c0.77-2.77,2.18-5.53,2.22-8.3
	C274.18,487.71,274.07,471.37,274.07,455.04z M431.94,317.98c-0.54,0.19-1.07,0.38-1.61,0.57c-0.13,1.54-0.77,3.26-0.3,4.59
	c3.33,9.3-0.55,15.81-7.28,21.95c-5.85,5.33-11.02,11.43-16.3,17.37c-3.38,3.81-2.45,7.72,0.76,11.18c3.16,3.4,6.23,6.96,9.79,9.89
	c6.84,5.63,8.92,12.24,6.32,20.8c-3.48,11.45-0.41,22.09,5.38,32.06c4.51,7.76,1.86,18.14-6.08,22.64
	c-5.61,3.18-13.77,1.92-18.96-2.94c-5.21-4.87-5.82-9.93-1.82-17.69c9.13-17.73,9.55-34.7-3.95-50.67
	c-3.02-3.57-6.74-5.48-10.99-3.27c-9.77,5.1-16.92,12.04-16.7,24.38c0.57,32.15,0.76,64.31,1.24,96.47
	c0.03,2.15,1.21,4.28,1.85,6.42c2.07-0.84,4.44-1.27,6.16-2.57c18.19-13.78,35.71-28.41,51.1-45.28
	c32.98-36.13,56.89-77.64,72.5-124.04c2.73-8.12,1.49-13.93-4.39-19.74c-10.43-10.28-20.51-20.91-30.78-31.35
	c-3.74-3.81-5.56-8.27-4.76-13.59c1.44-9.58-0.68-18.37-4.83-27.06c-4.56-9.55-1.18-17.81,8.49-22.14
	c5.91-2.65,11.03,0.05,15.85,3.28c4.23,2.83,5.79,6.92,4.53,11.74c-1.21,4.65-2.77,9.23-4.47,13.73
	c-2.66,7.04-3.73,14.38,0.78,20.61c5.7,7.87,12.34,15.09,18.99,22.2c4.69,5.01,7.69,4.16,8.8-2.7c3.1-19.2,5.72-38.49,8.44-57.75
	c0.66-4.68-1.85-7.82-6-9.24c-10.38-3.54-20.94-6.6-31.32-10.13c-30.37-10.35-59.11-24.06-85.7-42.14
	c-6.32-4.3-12.7-8.53-19.19-12.58c-2.28-1.42-5.62-2.69-6.25,1.45c-1.4,9.29-2.19,18.67,4.92,26.47c2.58,2.83,5.04,5.77,7.72,8.49
	c14.03,14.22,28.1,28.4,42.18,42.57c3.92,3.95,5.25,8.53,4.55,14.11c-0.75,5.93-0.87,11.95-1.04,17.94
	c-0.32,11.26,3.85,20.84,11.69,28.75c9.82,9.9,20,19.44,29.7,29.45c2.68,2.76,6.2,6.86,5.86,9.96c-0.81,7.33,3.13,12.19,5.88,17.96
	c1.34,2.82,1.68,7.1,0.51,9.88c-1.68,3.98-4.73,7.69-7.99,10.62c-6.33,5.68-14.73,3.65-18.66-4.02c-3.93-7.65-2.13-15.09,1.79-21.92
	c2.99-5.22,1.91-9.17-1.88-12.96c-5.16-5.16-10.44-10.2-15.68-15.27C437.83,323.62,434.88,320.81,431.94,317.98z"/>
</svg>
