<?xml version="1.0" encoding="UTF-8" standalone="no"?>
<!DOCTYPE svg PUBLIC "-//W3C//DTD SVG 1.1//EN" "http://www.w3.org/Graphics/SVG/1.1/DTD/svg11.dtd">
<svg width="100%" height="100%" viewBox="0 0 641 640" version="1.1" xmlns="http://www.w3.org/2000/svg" xmlns:xlink="http://www.w3.org/1999/xlink" xml:space="preserve" xmlns:serif="http://www.serif.com/" style="fill-rule:evenodd;clip-rule:evenodd;stroke-linejoin:round;stroke-miterlimit:2;">
    <g transform="matrix(1,0,0,1,0.004232,0.000589)">
        <path d="M640.99,319.42C641.27,494.46 498.75,638.25 323.5,639.81C145.84,641.4 0.92,498.06 0,321.54C-0.9,146.57 141.87,-0.34 321.51,0C494.26,0.32 641.32,140.25 640.99,319.42ZM619.39,320.56C619.56,240.6 585.68,160.32 528.28,105.82C466.53,47.18 392.68,18.59 307.73,22.09C152.4,28.49 22.11,153.04 22.3,319.64C22.5,490.01 157.29,620.13 322.51,619.13C489.41,618.11 618.95,483.76 619.39,320.56Z" style="fill:white;fill-rule:nonzero;"/>
        <path d="M324.13,606.66C166.96,608.16 35.34,481.13 32.9,325.94C30.28,159.75 162.82,33.69 316.13,31.9C478.83,30 606.04,160.64 608.33,312.41C610.93,484.25 470.76,606.5 324.13,606.66ZM321.16,50.66C170.62,49.63 50.58,172.96 51.34,320.26C52.09,466 170.2,588.33 319.27,588.94C471.61,589.56 590.27,463.47 589.88,319.04C589.49,173.17 467.65,48.9 321.16,50.66Z" style="fill:white;fill-rule:nonzero;"/>
        <path d="M541.91,245.97C542.3,282.93 535.66,318.73 523.68,353.7C501.79,417.58 464.2,470.28 412.43,513.38C386.51,534.96 357.61,551.51 327.67,566.49C325.24,567.7 321.45,567.87 318.9,566.9C266.76,547.16 224.54,513.62 188.16,472.12C165.65,446.44 147,418.19 132.88,387.07C121.13,361.18 113.35,334.09 107.96,306.17C102.63,278.53 100.5,250.74 101.64,222.66C101.69,221.33 101.73,220 101.81,218.67C102.41,208.72 103.83,207.34 113.32,204.66C130.61,199.77 147.99,195.11 164.99,189.35C197.59,178.32 227.18,161.57 254.18,140.23C278.32,121.15 299.25,99.02 317.2,74.05C317.68,73.38 318.39,72.84 318.78,72.12C320.74,68.44 322.43,68.79 324.9,71.92C333.02,82.22 340.94,92.72 349.71,102.45C377.29,133.02 409.36,157.91 446.38,176.04C466.58,185.93 487.64,193.82 509.38,199.66C517.57,201.86 525.92,203.55 534.27,205.04C539.56,205.99 542.09,208.39 541.97,213.97C541.75,224.65 541.91,235.31 541.91,245.97ZM354.51,401.83C354.46,393.33 357.27,386.43 363.37,380.47C376.39,367.73 388.94,354.51 402.11,341.93C410.1,334.29 413.98,325.53 413.8,314.49C413.54,297.83 413.76,281.16 413.9,264.5C413.96,257.81 411.91,252.07 407.18,247.35C397.65,237.86 388.12,228.37 378.45,219.02C377.17,217.78 375.11,217.34 373.41,216.53C372.82,218.36 371.78,220.17 371.72,222.02C371.33,234.01 370.51,246.03 371.13,257.98C371.53,265.63 373.43,273.41 375.95,280.68C379.22,290.12 375.98,298.36 366.5,301.25C360.23,303.16 354.98,301.16 350.7,296.57C346.54,292.1 346.05,287.52 348.91,281.58C351.41,276.38 352.79,270.16 352.91,264.36C353.67,228.71 353.67,193.05 354.47,157.4C354.8,142.97 346.71,134.34 336.17,126.91C332.96,124.65 331.36,125.74 331.37,129.7C331.44,151.86 331.33,174.02 331.81,196.17C331.92,201.12 333.06,206.72 335.64,210.82C342.21,221.22 336.24,228.72 329.03,232.87C323.66,235.97 318.48,235.08 313.68,231.35C308.83,227.58 305.22,223.26 307.06,216.5C308.24,212.17 309.71,207.88 310.48,203.47C314.74,178.96 311.84,154.25 312.29,129.62C312.36,126.03 309.94,125.29 307.24,127.35C303.95,129.87 300.92,132.74 297.81,135.49C291.84,140.77 289.5,147.16 289.59,155.36C289.99,189.52 289.87,223.68 289.71,257.84C289.67,266.18 291.03,273.94 294.94,281.41C298.52,288.25 297,294.87 291.66,298.94C285.52,303.63 278.44,303.99 273.21,299.89C268.17,295.94 267.18,289.17 269.94,281.65C271.76,276.69 273.92,271.5 274.1,266.36C274.58,252.55 274.18,238.71 273.84,224.88C273.79,222.83 272.56,219.45 271.25,219.11C269.35,218.62 266.34,219.75 264.74,221.21C256.74,228.48 249.06,236.11 241.23,243.56C234.75,249.73 231.29,257.19 231.27,266.19C231.22,284.85 231.11,303.51 231.14,322.17C231.15,328.05 233.19,333.03 237.56,337.32C252.3,351.79 266.7,366.6 281.47,381.04C287.17,386.61 289.94,392.61 289.84,400.87C289.4,437.86 289.5,474.85 289.5,511.85C289.5,529.29 288.02,524.45 302.08,532.55C311.05,537.71 312.28,536.81 312.37,526.37C312.84,472.72 313.18,419.07 313.86,365.42C314,354.56 312.24,344.29 308.47,334.19C305.29,325.68 307.51,318.87 314.76,313.6C319.63,310.06 327.18,310.96 332.67,315.73C339.21,321.42 340.22,325.01 336.47,331.71C332.78,338.3 331.34,345.22 331.38,352.74C331.53,381.23 331.44,409.73 331.44,438.22L331.64,438.22C331.64,468.55 331.62,498.88 331.66,529.2C331.67,535.47 333.01,536.2 338.89,533.84C349.55,529.57 355.86,522.49 354.83,510.29C354.55,506.98 354.73,503.63 354.73,500.3M274.07,455.04L274.16,455.04C274.16,438.71 274.26,422.37 274.07,406.04C274.03,403 273.74,399.17 271.94,397.1C267.52,392.01 262.28,387.59 257.09,383.24C256.1,382.41 253.18,382.42 252.23,383.26C246.39,388.46 240.73,393.94 238.38,401.75C234.38,415.06 238.21,427.42 243.24,439.58C246.37,447.15 245.06,452.8 238.84,457.83C234.39,461.42 225.19,461.12 219.52,457.19C213.88,453.28 211.34,446.5 214.29,440.11C219.82,428.12 221.79,415.73 220.52,402.68C219.94,396.73 222.03,391.49 225.83,387C229.25,382.95 232.85,379.05 236.47,375.18C241.75,369.53 241.92,367.57 236.5,361.81C231.28,356.26 225.93,350.8 220.36,345.6C214.64,340.27 210.94,334.47 213.12,326.22C213.43,325.03 212.46,323.5 212.08,322.13C210.77,322.57 209.14,322.65 208.19,323.5C202.25,328.8 196.31,334.12 190.67,339.73C182.67,347.69 182.59,349.14 187.75,359.24C188.28,360.28 188.8,361.32 189.25,362.4C191.65,368.11 189.03,377.2 183.8,381.33C179.81,384.48 173.5,384.09 167.97,380.34C161.89,376.23 159.71,368.53 162.42,361.24C163.87,357.35 165.95,353.45 166.28,349.43C167.05,340.11 171.76,333.18 178.08,326.99C186.4,318.84 194.76,310.73 203.26,302.76C209.82,296.61 213.47,289.45 212.95,280.22C212.6,273.91 213.38,267.52 212.81,261.23C211.9,251.18 215.84,243.8 222.94,236.99C236.87,223.63 250.22,209.66 263.87,196.01C271.44,188.44 274.36,179.29 273.78,168.77C273.44,162.58 270.83,160.81 265.48,163.9C259.29,167.47 253.38,171.52 247.35,175.37C220.04,192.79 191.64,207.97 160.6,217.77C151.08,220.77 141.6,223.9 132.09,226.93C127,228.55 125.12,231.98 125.63,237.23C127.61,257.61 129.4,278.01 131.41,298.39C131.88,303.12 134.38,304.22 138.14,301.01C144.83,295.3 151.22,289.22 157.49,283.05C163.66,276.97 164.93,269.35 162.62,261.31C161.07,255.9 158.37,250.83 156.71,245.45C155.93,242.92 155.32,239.4 156.46,237.36C163.48,224.8 172.39,220.96 184.21,230.97C189.09,235.1 189.95,238.94 187.11,244.74C183.29,252.54 181.12,260.66 181.78,269.34C182.55,279.47 178.58,287.3 171.29,294.07C162.04,302.65 153.14,311.61 144.12,320.43C139.49,324.95 137.26,329.94 139.96,336.57C145.66,350.59 150.33,365.07 156.69,378.77C171.22,410.04 190,438.62 213.55,463.94C228.86,480.4 244.88,496.12 263.17,509.3C265.53,511 268.85,511.36 271.72,512.34C272.49,509.57 273.9,506.81 273.94,504.04C274.18,487.71 274.07,471.37 274.07,455.04ZM431.94,317.98C431.4,318.17 430.87,318.36 430.33,318.55C430.2,320.09 429.56,321.81 430.03,323.14C433.36,332.44 429.48,338.95 422.75,345.09C416.9,350.42 411.73,356.52 406.45,362.46C403.07,366.27 404,370.18 407.21,373.64C410.37,377.04 413.44,380.6 417,383.53C423.84,389.16 425.92,395.77 423.32,404.33C419.84,415.78 422.91,426.42 428.7,436.39C433.21,444.15 430.56,454.53 422.62,459.03C417.01,462.21 408.85,460.95 403.66,456.09C398.45,451.22 397.84,446.16 401.84,438.4C410.97,420.67 411.39,403.7 397.89,387.73C394.87,384.16 391.15,382.25 386.9,384.46C377.13,389.56 369.98,396.5 370.2,408.84C370.77,440.99 370.96,473.15 371.44,505.31C371.47,507.46 372.65,509.59 373.29,511.73C375.36,510.89 377.73,510.46 379.45,509.16C397.64,495.38 415.16,480.75 430.55,463.88C463.53,427.75 487.44,386.24 503.05,339.84C505.78,331.72 504.54,325.91 498.66,320.1C488.23,309.82 478.15,299.19 467.88,288.75C464.14,284.94 462.32,280.48 463.12,275.16C464.56,265.58 462.44,256.79 458.29,248.1C453.73,238.55 457.11,230.29 466.78,225.96C472.69,223.31 477.81,226.01 482.63,229.24C486.86,232.07 488.42,236.16 487.16,240.98C485.95,245.63 484.39,250.21 482.69,254.71C480.03,261.75 478.96,269.09 483.47,275.32C489.17,283.19 495.81,290.41 502.46,297.52C507.15,302.53 510.15,301.68 511.26,294.82C514.36,275.62 516.98,256.33 519.7,237.07C520.36,232.39 517.85,229.25 513.7,227.83C503.32,224.29 492.76,221.23 482.38,217.7C452.01,207.35 423.27,193.64 396.68,175.56C390.36,171.26 383.98,167.03 377.49,162.98C375.21,161.56 371.87,160.29 371.24,164.43C369.84,173.72 369.05,183.1 376.16,190.9C378.74,193.73 381.2,196.67 383.88,199.39C397.91,213.61 411.98,227.79 426.06,241.96C429.98,245.91 431.31,250.49 430.61,256.07C429.86,262 429.74,268.02 429.57,274.01C429.25,285.27 433.42,294.85 441.26,302.76C451.08,312.66 461.26,322.2 470.96,332.21C473.64,334.97 477.16,339.07 476.82,342.17C476.01,349.5 479.95,354.36 482.7,360.13C484.04,362.95 484.38,367.23 483.21,370.01C481.53,373.99 478.48,377.7 475.22,380.63C468.89,386.31 460.49,384.28 456.56,376.61C452.63,368.96 454.43,361.52 458.35,354.69C461.34,349.47 460.26,345.52 456.47,341.73C451.31,336.57 446.03,331.53 440.79,326.46C437.83,323.62 434.88,320.81 431.94,317.98Z" style="fill:white;fill-rule:nonzero;"/>
    </g>
</svg>
